<svg xmlns="http://www.w3.org/2000/svg"  viewBox="0 0 50 50" width="50px" height="50px"><path d="M 13 4 C 8.038 4 4 8.037 4 13 L 4 37 C 4 41.963 8.038 46 13 46 L 37 46 C 41.962 46 46 41.963 46 37 L 46 13 C 46 8.037 41.962 4 37 4 L 13 4 z M 13 6 L 37 6 C 40.86 6 44 9.141 44 13 L 44 37 C 44 40.859 40.86 44 37 44 L 13 44 C 9.14 44 6 40.859 6 37 L 6 13 C 6 9.141 9.14 6 13 6 z M 25.742188 15.013672 C 20.528187 15.013672 15.956938 17.737344 13.460938 21.777344 C 13.420938 21.841344 13.466016 21.927594 13.541016 21.933594 L 14.113281 22.15625 C 14.186281 22.16225 14.254922 22.126453 14.294922 22.064453 C 16.643922 18.322453 20.878953 15.808594 25.751953 15.808594 C 31.549953 15.808594 36.458125 19.360406 38.328125 24.316406 C 38.357125 24.392406 38.429719 24.443359 38.511719 24.443359 L 39.107422 24.443359 C 39.177422 24.443359 39.226125 24.372641 39.203125 24.306641 C 37.297125 18.908641 31.985188 15.013672 25.742188 15.013672 z M 11.396484 22.40625 C 10.954141 22.388172 10.483953 22.40225 9.9394531 22.4375 C 7.7614531 22.5785 7.7630625 23.667125 8.2890625 23.703125 C 8.6000625 23.724125 8.7761406 23.746813 8.8691406 23.757812 C 8.9471406 23.766813 8.958375 23.747891 8.984375 23.712891 C 9.006375 23.682891 9.0163438 23.636375 9.0273438 23.609375 C 9.0463438 23.560375 9.0244687 23.511188 8.9804688 23.492188 C 8.9354688 23.472188 8.4296875 23.248047 8.4296875 23.248047 C 8.4296875 23.248047 11.170172 22.545312 14.576172 24.195312 C 17.982172 25.845313 18.860109 27.988969 17.912109 29.042969 C 16.964109 30.096969 15.314344 30.624969 13.277344 30.167969 C 13.242344 28.727969 13.3125 27.673828 13.3125 27.673828 C 13.3125 27.673828 15.209172 27.602125 15.701172 27.953125 C 16.121172 28.253125 15.874656 28.451359 15.597656 28.568359 C 15.549656 28.588359 15.546844 28.674219 15.589844 28.699219 C 15.982844 28.917219 16.294125 28.968094 16.578125 28.621094 C 16.894125 28.235094 17.245812 26.584453 13.382812 26.689453 C 13.312812 26.022453 13.524891 25.565438 12.962891 24.898438 C 12.400891 24.227437 12.400391 26.722656 12.400391 26.722656 C 12.400391 26.722656 10.959625 26.931391 9.765625 27.775391 C 8.571625 28.619391 12.224609 30.65625 12.224609 30.65625 C 12.224609 30.65625 12.293312 31.569781 12.820312 31.675781 C 13.347312 31.780781 13.3125 31.007813 13.3125 31.007812 C 13.3125 31.007812 16.473031 31.921547 18.582031 30.060547 C 20.688031 28.197547 18.720156 25.21275 15.910156 23.84375 C 13.802656 22.81625 12.723516 22.460484 11.396484 22.40625 z M 21.082031 22.894531 C 20.900953 22.878078 20.689109 22.894594 20.443359 22.964844 C 19.460359 23.245844 18.231375 24.544719 19.109375 25.386719 C 19.109375 25.772719 19.214234 26.51075 19.740234 25.84375 C 20.301234 26.09075 21.39075 25.915891 22.09375 25.212891 C 22.79575 24.510891 23.111812 23.209297 21.882812 23.279297 C 21.882812 23.279297 21.625266 22.943891 21.082031 22.894531 z M 20.511719 23.632812 C 20.511719 23.632812 19.564828 24.404172 19.423828 24.826172 C 19.317828 24.299172 19.598719 23.807813 20.511719 23.632812 z M 21.839844 23.861328 C 22.430701 23.789469 22.132125 24.558734 21.671875 24.896484 C 21.144875 25.282484 20.617328 25.388891 19.986328 25.212891 C 19.986328 25.212891 20.546297 24.334266 21.529297 23.947266 C 21.652172 23.899016 21.755436 23.871594 21.839844 23.861328 z M 39.412109 25.451172 C 39.125109 25.451172 39.080547 25.453125 38.810547 25.453125 C 38.732547 25.455125 38.679219 25.529516 38.699219 25.603516 C 38.787219 25.926516 38.915031 26.749922 38.957031 27.669922 L 36.949219 27.669922 C 36.887219 27.669922 36.835031 27.72025 36.832031 27.78125 L 36.779297 28.314453 C 36.775297 28.399453 36.848594 28.469938 36.933594 28.460938 L 38.982422 28.466797 C 38.994422 29.220797 38.999547 29.673703 38.935547 30.470703 C 38.927547 30.523703 38.969438 30.569266 39.023438 30.572266 C 39.345438 30.592266 39.547922 30.617141 39.669922 30.619141 C 39.718922 30.620141 39.759672 30.582203 39.763672 30.533203 C 39.782672 30.277203 39.829641 29.474703 39.806641 28.470703 L 41.886719 28.476562 C 41.951719 28.476562 42.003906 28.424375 42.003906 28.359375 L 42.003906 27.785156 C 42.006906 27.722156 41.952672 27.671875 41.888672 27.671875 L 39.775391 27.671875 C 39.731391 26.972875 39.646187 26.226391 39.492188 25.525391 C 39.484187 25.486391 39.452109 25.454172 39.412109 25.451172 z M 27.242188 25.892578 C 26.94425 25.877297 27.273672 26.942688 27.326172 27.179688 C 27.396172 27.495687 27.677734 28.689641 27.677734 29.181641 C 27.326734 28.654641 26.763484 27.600375 26.271484 27.109375 C 25.779484 26.617375 25.640625 27.039063 25.640625 27.039062 C 25.640625 27.039062 25.148062 28.829281 25.289062 29.988281 C 25.430062 31.147281 26.0265 30.339281 26.0625 29.988281 C 26.0975 29.637281 26.167969 28.478109 26.167969 28.162109 C 26.483969 28.864109 26.975328 29.673547 27.361328 30.060547 C 27.747328 30.446547 28.135391 30.200609 28.275391 29.849609 C 28.416391 29.498609 28.872203 27.601891 27.783203 26.337891 C 27.511203 26.021891 27.3415 25.897672 27.242188 25.892578 z M 33.580078 26.535156 C 33.449828 26.509656 33.259766 26.582031 33.259766 26.582031 C 33.259766 26.582031 31.468234 28.0915 32.240234 29.8125 C 31.713234 31.1115 30.870609 32.973031 32.099609 33.957031 C 32.415609 34.167031 32.310016 33.535594 32.416016 33.183594 C 32.522016 32.831594 32.873609 31.042781 33.224609 30.550781 C 34.067609 30.480781 35.576266 30.163859 35.822266 27.880859 C 35.929266 26.405859 34.596359 26.721047 34.068359 27.248047 C 33.541359 27.775047 32.628906 29.146484 32.628906 29.146484 C 32.734906 28.233484 32.979016 27.987219 33.541016 27.074219 C 33.781016 26.684219 33.710328 26.560656 33.580078 26.535156 z M 23.597656 26.546875 C 22.952281 26.546875 22.145594 26.651266 21.496094 27.072266 C 20.864094 27.493266 21.039625 28.267734 21.390625 28.302734 C 21.741625 28.337734 23.531125 28.4075 23.953125 28.6875 C 24.375125 28.9675 24.480437 29.179937 24.023438 29.460938 C 23.566437 29.741937 22.548953 29.882187 22.126953 29.742188 C 21.705953 29.601188 21.565891 28.864 22.337891 29.25 C 23.110891 29.636 24.514406 29.179281 23.566406 28.863281 C 22.618406 28.547281 21.845516 28.619703 21.353516 28.970703 C 20.861516 29.321703 21.530797 30.059687 22.091797 30.304688 C 22.653797 30.549688 23.707844 30.620375 24.339844 30.234375 C 24.971844 29.848375 25.287531 28.372953 24.269531 28.126953 C 23.250531 27.881953 22.618109 27.916703 22.162109 27.845703 C 21.705109 27.775703 21.917297 27.600297 22.654297 27.529297 C 23.391297 27.459297 23.918781 27.424312 24.550781 27.320312 C 25.182781 27.214312 25.217563 26.757344 24.726562 26.652344 C 24.726562 26.652344 24.243031 26.546875 23.597656 26.546875 z M 31.292969 26.617188 C 30.800969 26.582187 29.746922 26.722328 29.044922 26.861328 C 28.342922 27.002328 29.501953 27.529297 29.501953 27.529297 C 29.501953 27.529297 29.396812 27.880953 29.257812 28.126953 C 28.836813 28.196953 28.870719 28.441813 29.011719 28.757812 C 28.730719 29.494812 28.591437 30.408453 29.398438 30.689453 C 30.206437 30.970453 31.153062 30.233969 31.539062 29.917969 C 31.925063 29.601969 31.469031 29.286266 31.082031 29.322266 C 30.696031 29.357266 29.572266 29.53125 29.572266 29.53125 L 29.818359 28.794922 C 29.818359 28.794922 30.555344 28.829766 31.152344 28.759766 C 31.749344 28.689766 31.328187 28.023437 31.117188 28.023438 L 30.134766 28.023438 L 30.310547 27.53125 C 30.310547 27.53125 31.608297 27.496781 32.029297 27.425781 C 32.450297 27.355781 31.784969 26.652188 31.292969 26.617188 z M 20.134766 26.716797 C 20.067953 26.736516 20.003672 26.793187 19.951172 26.898438 C 19.951172 26.898438 19.775703 28.935219 19.845703 30.199219 C 19.880703 30.726219 20.722656 30.830688 20.722656 30.304688 C 20.722656 29.777687 20.688188 27.670047 20.617188 27.248047 C 20.564688 26.932297 20.335203 26.657641 20.134766 26.716797 z M 35.154297 27.644531 C 35.320762 27.621445 35.375625 27.815078 35.15625 28.408203 C 34.80525 29.356203 33.611328 29.498047 33.611328 29.498047 C 33.611328 29.498047 34.383531 28.233813 34.769531 27.882812 C 34.914656 27.751188 35.054418 27.658383 35.154297 27.644531 z M 12.328125 27.669922 L 12.259766 29.917969 C 12.259766 29.917969 11.065437 29.425125 10.398438 28.828125 C 9.7314375 28.231125 9.9418125 28.127641 10.257812 28.056641 C 10.573813 27.986641 11.802125 27.669922 12.328125 27.669922 z"/></svg>